<svg width="128" height="128" viewBox="0 0 128 128" fill="none" xmlns="http://www.w3.org/2000/svg">
    <path d="M62.0789 25.6043C62.1031 25.5649 62.1244 25.5299 62.1427 25.4993L62.1941 25.4541L62.6888 25.0189C63.1186 24.6409 63.7407 24.094 64.5103 23.4183C66.0494 22.0668 68.1777 20.2003 70.5349 18.1401C75.251 14.0182 80.8768 9.12609 84.5324 6.03084L84.0578 5.47033L84.5324 6.03084C89.2692 2.02011 93.9529 0.886072 98.9218 1.00878C102.626 1.10027 106.428 1.88046 110.559 2.72806C111.983 3.02023 113.446 3.3204 114.957 3.60314C117.461 6.16652 118.925 8.13217 120.105 9.79153C120.253 10.0006 120.398 10.2065 120.542 10.4095C121.525 11.8049 122.413 13.0644 123.663 14.2802C124.79 16.6465 125.598 18.439 126.137 20.3616C126.684 22.3127 126.963 24.4359 126.963 27.4454C126.963 28.4434 126.973 29.4143 126.982 30.3626C127.038 36.307 127.085 41.3638 124.82 46.6383C123.607 49.4628 121.699 51.6251 119.515 53.7176C118.876 54.3294 118.205 54.9431 117.52 55.5683C115.934 57.0171 114.28 58.528 112.814 60.2225C111.261 61.4049 109.9 62.4694 108.637 63.4566C105.195 66.1475 102.489 68.2634 98.6565 70.6257L98.5594 70.6855L98.4783 70.7656C95.822 73.3901 92.8839 75.8114 90.6025 77.5811C89.4634 78.4646 88.4917 79.1829 87.8058 79.6796C87.4629 79.9279 87.1915 80.1207 87.0066 80.2509C86.9419 80.2965 86.8877 80.3345 86.8448 80.3644C86.5427 80.4742 86.2437 80.6495 85.9804 80.8235C85.6385 81.0493 85.266 81.335 84.8856 81.649C84.1237 82.2781 83.2766 83.066 82.4938 83.8272C81.7085 84.5909 80.9755 85.3399 80.4396 85.897C80.4174 85.9201 80.3955 85.9429 80.374 85.9653L70.0554 72.4459L70.0368 72.4111C69.9993 72.341 69.9442 72.2383 69.8732 72.1069C69.7312 71.8441 69.5255 71.4665 69.2697 71.0052C68.7582 70.083 68.0451 68.8238 67.2392 67.4777C66.4341 66.133 65.5313 64.6928 64.6407 63.4117C63.7601 62.1449 62.8546 60.9793 62.0425 60.223C60.5859 58.8663 58.1512 56.5639 55.9446 54.0389C54.8415 52.7765 53.8082 51.473 52.9867 50.2169C52.1586 48.9505 51.5813 47.7854 51.3382 46.7946C50.8264 44.7091 50.3151 42.8889 49.9317 41.5895C49.7459 40.96 49.59 40.4523 49.4783 40.0951C54.4377 35.203 57.5929 31.5747 59.5243 29.141C60.5183 27.8884 61.1886 26.9517 61.6142 26.3214C61.827 26.0063 61.9786 25.7676 62.0789 25.6043Z"
          fill="#1E9891"
          stroke="#1E6791"
          stroke-width="1"
          stroke-linecap="round"
    />
    <path d="M40.9936 47.7491C41.0593 47.7028 41.1141 47.6644 41.1573 47.6342C41.4725 47.5175 41.7868 47.3252 42.06 47.1386C42.4174 46.8943 42.8132 46.5825 43.2218 46.2374C44.0404 45.5459 44.9648 44.6743 45.8254 43.8288C46.6887 42.9809 47.4997 42.1475 48.0942 41.527C48.136 41.4834 48.1767 41.4409 48.2163 41.3994L57.933 55.532L57.9634 55.5889C58.0009 55.659 58.056 55.7617 58.127 55.8931C58.269 56.1559 58.4747 56.5335 58.7306 56.9948C59.242 57.917 59.9551 59.1762 60.7611 60.5223C61.5661 61.867 62.4689 63.3072 63.3595 64.5883C64.2401 65.8551 65.1457 67.0207 65.9577 67.777C67.4143 69.1337 69.849 71.4361 72.0556 73.9611C73.1588 75.2235 74.1921 76.527 75.0135 77.7831C75.8417 79.0495 76.4189 80.2146 76.6621 81.2054C77.1884 83.3499 77.8789 85.0501 78.442 86.2206C78.6622 86.6784 78.8632 87.0557 79.0278 87.3474C74.1281 92.1902 70.8592 95.9407 68.7947 98.5144C67.7232 99.8501 66.9762 100.869 66.4938 101.559C66.2527 101.904 66.0777 102.167 65.9615 102.346C65.9244 102.403 65.8934 102.451 65.868 102.491L65.8062 102.546L65.3114 102.981C64.8817 103.359 64.2595 103.906 63.49 104.582C61.9509 105.933 59.8225 107.8 57.4653 109.86C52.7492 113.982 47.1234 118.874 43.4678 121.969C38.7311 125.98 34.0473 127.114 29.0784 126.991C25.3738 126.9 21.5718 126.12 17.4413 125.272C16.0175 124.98 14.5547 124.68 13.0434 124.397C10.5391 121.833 9.07486 119.868 7.89553 118.208C7.74692 117.999 7.60175 117.793 7.4586 117.59C6.47498 116.195 5.58718 114.936 4.33721 113.72C3.20998 111.354 2.40181 109.561 1.86287 107.638C1.31593 105.687 1.03677 103.564 1.03677 100.555C1.03677 99.5567 1.02763 98.5858 1.0187 97.6374C0.962715 91.693 0.915092 86.6362 3.18034 81.3617C4.39334 78.5372 6.30132 76.3749 8.48518 74.2824C9.12374 73.6706 9.79553 73.0569 10.48 72.4317C12.0659 70.983 13.72 69.472 15.1865 67.7775C16.7389 66.5951 18.1004 65.5306 19.363 64.5434C22.8048 61.8525 25.5111 59.7366 29.3438 57.3743L29.4408 57.3145L29.5219 57.2344C32.1783 54.6099 35.1163 52.1886 37.3978 50.4189C38.5368 49.5354 39.5085 48.8171 40.1945 48.3204C40.5374 48.0721 40.8087 47.8793 40.9936 47.7491Z"
          fill="#F7B100"
          stroke="#DBBE29"
          stroke-width="2"
          stroke-linecap="round"
    />
    <path d="M58.1707 89.4139C58.1707 89.4139 53.1539 90.9185 45.2958 81.783C38.4064 73.1982 38.7414 67.8753 38.7414 64.6134M23.7598 77.0137C24.584 78.9327 22.1082 83.3012 30.3013 95.1371C38.9438 104.676 45.2958 104.676 45.2958 104.676M23.7598 117.076C22.0627 116.124 19.5122 118.128 12.2897 106.583C8.17433 100.005 9.45551 95.4086 9.01233 94.1832"
          stroke="#FBFF32"
          stroke-width="4"
          stroke-linecap="round"
    />
</svg>
