<svg width="32" height="32" viewBox="0 0 32 32" fill="none" xmlns="http://www.w3.org/2000/svg">
    <path d="M21.5115 19.3124C21.4437 19.3615 21.3878 19.4014 21.3457 19.4312C21.2324 19.483 21.1408 19.541 21.0817 19.5801C20.9656 19.6567 20.8498 19.7464 20.7438 19.8339C20.5542 19.9905 20.3525 20.1763 20.1684 20.3534L18.1462 17.704L18.1281 17.6701C18.0914 17.6024 18.0387 17.5055 17.9732 17.3875C17.8426 17.1521 17.6601 16.8298 17.4532 16.4842C17.2472 16.1401 17.0119 15.7643 16.7759 15.4248C16.55 15.0998 16.2862 14.7533 16.0217 14.5069C15.6603 14.1703 15.0756 13.6166 14.5508 13.0162C14.2886 12.7161 14.0542 12.4188 13.8743 12.1438C13.6877 11.8583 13.5946 11.6491 13.5629 11.5199C13.4383 11.0124 13.314 10.5666 13.2177 10.2377C14.2945 9.15531 15.0086 8.33102 15.4685 7.75147C15.7281 7.42436 15.9072 7.17468 16.0251 7.00002C16.0599 6.94851 16.0893 6.90349 16.114 6.86492L16.1674 6.81791L16.6224 6.41814C17.0068 6.08055 17.5385 5.61432 18.1272 5.09974C19.3065 4.06901 20.7089 2.84961 21.6177 2.08009L20.9746 1.32054L21.6177 2.08009C22.6405 1.21409 23.6238 0.975095 24.7119 1.00197C25.5665 1.02307 26.4222 1.19861 27.4271 1.40476C27.725 1.46588 28.036 1.52969 28.3641 1.59296C28.8568 2.11512 29.1604 2.52447 29.4148 2.88237C29.4495 2.93125 29.4844 2.98088 29.5198 3.03112C29.7402 3.34449 29.9772 3.68144 30.2934 4.00798C30.5437 4.53725 30.7042 4.9077 30.8121 5.29284C30.926 5.69907 30.9908 6.15899 30.9908 6.86134C30.9908 7.12361 30.9928 7.37364 30.9947 7.61336C31.0067 9.10646 31.0155 10.2 30.5158 11.3636C30.2718 11.9317 29.8805 12.389 29.3598 12.8879C29.2258 13.0163 29.0739 13.1551 28.9124 13.3027C28.5219 13.6595 28.0752 14.0677 27.6887 14.5049C27.3069 14.7963 26.9756 15.0554 26.6716 15.2931C25.8252 15.9548 25.1909 16.4507 24.2705 17.018L24.1735 17.0778L24.0924 17.1579C23.4577 17.785 22.7487 18.37 22.1909 18.8027C21.9137 19.0177 21.6775 19.1923 21.5115 19.3124Z"
          fill="#1E9891" stroke="#DB2929" stroke-width="0" stroke-linecap="round"/>
    <path d="M10.4885 12.6876C10.5576 12.6375 10.6145 12.597 10.6568 12.567C10.7804 12.5096 10.8791 12.4442 10.9381 12.4039C11.0568 12.3228 11.1774 12.227 11.2894 12.1323C11.5044 11.9507 11.7383 11.7307 11.9505 11.523L13.8418 14.2738L13.8719 14.3299C13.9086 14.3976 13.9613 14.4945 14.0268 14.6125C14.1574 14.8479 14.3399 15.1702 14.5468 15.5158C14.7528 15.8599 14.9881 16.2357 15.2241 16.5752C15.45 16.9002 15.7138 17.2467 15.9783 17.4931C16.3396 17.8297 16.9244 18.3834 17.4492 18.9838C17.7114 19.2839 17.9458 19.5812 18.1257 19.8562C18.3123 20.1417 18.4054 20.3509 18.4371 20.4801C18.5567 20.9673 18.7073 21.3737 18.8457 21.6873C17.8108 22.7341 17.092 23.563 16.6136 24.1593C16.3358 24.5057 16.1391 24.7736 16.0088 24.96C15.9624 25.0263 15.9245 25.0822 15.8943 25.1278L15.8326 25.1821L15.3776 25.5819C14.9932 25.9194 14.4615 26.3857 13.8728 26.9003C12.6935 27.931 11.2911 29.1504 10.3823 29.9199L11.019 30.6719L10.3823 29.9199C9.35954 30.7859 8.37623 31.0249 7.28813 30.998C6.43347 30.9769 5.57781 30.8014 4.57292 30.5952C4.275 30.5341 3.96395 30.4703 3.63593 30.407C3.1432 29.8849 2.83957 29.4755 2.58521 29.1176C2.55047 29.0687 2.51556 29.0191 2.48022 28.9689C2.25979 28.6555 2.02276 28.3186 1.70663 27.992C1.45633 27.4628 1.29584 27.0923 1.18788 26.7072C1.07401 26.3009 1.00919 25.841 1.00919 25.1387C1.00919 24.8764 1.00718 24.6264 1.00526 24.3866C0.993263 22.8935 0.984478 21.8 1.48422 20.6364C1.7282 20.0683 2.11951 19.611 2.64017 19.1121C2.77422 18.9837 2.92611 18.8449 3.08761 18.6973C3.47809 18.3405 3.92475 17.9323 4.3113 17.4951C4.69308 17.2037 5.02443 16.9446 5.32843 16.7069C6.17482 16.0452 6.80914 15.5493 7.72947 14.982L7.82651 14.9222L7.90759 14.8421C8.54234 14.215 9.25133 13.63 9.80912 13.1973C10.0863 12.9823 10.3225 12.8077 10.4885 12.6876Z"
          fill="#F7B100" stroke="#DBBE29" stroke-width="0" stroke-linecap="round"/>
    <path d="M14.5426 22.3535C14.5426 22.3535 13.2884 22.7297 11.3239 20.4458C9.60157 18.2996 9.68531 16.9688 9.68531 16.1534M5.93993 19.2534C6.14597 19.7332 5.52703 20.8253 7.57529 23.7843C9.73592 26.169 11.3239 26.169 11.3239 26.169M5.93993 29.269C5.51565 29.0309 4.87802 29.5321 3.0724 26.6459C2.04355 25.0013 2.36385 23.8522 2.25305 23.5458"
          stroke="#FBFF32" stroke-width="1" stroke-linecap="round"/>
</svg>
